<svg viewBox="0 0 340 220" xmlns="http://www.w3.org/2000/svg" font-family="Segoe UI, Arial, sans-serif">
  <rect width="340" height="220" fill="#eaf1f8"/>
  <rect x="0" y="150" width="340" height="70" fill="#d7e5f0"/>
  <polygon points="40,95 90,95 80,115 50,115" fill="#1F4E79"/>
  <rect x="52" y="80" width="14" height="16" fill="#1F4E79"/>
  <line x1="65" y1="115" x2="110" y2="150" stroke="#2E86AB" stroke-width="2"/>
  <line x1="65" y1="115" x2="110" y2="185" stroke="#2E86AB" stroke-width="2"/>
  <!-- otter boards -->
  <rect x="100" y="140" width="10" height="24" fill="#8a6300" transform="rotate(-15 105 152)"/>
  <rect x="100" y="175" width="10" height="24" fill="#8a6300" transform="rotate(15 105 187)"/>
  <!-- net -->
  <path d="M110,150 L110,185 L230,170 Z" fill="none" stroke="#1F4E79" stroke-width="2"/>
  <path d="M130,155 L130,180 M150,158 L150,177 M170,161 L170,175 M190,164 L190,173" stroke="#2E86AB" stroke-width="1"/>
  <circle cx="230" cy="170" r="6" fill="#1F4E79"/>
  <!-- floats/weights labels -->
  <circle cx="112" cy="149" r="3" fill="#e0a800"/>
  <circle cx="112" cy="186" r="3" fill="#595959"/>
  <text x="150" y="30" font-size="15" font-weight="700" fill="#1F4E79">Пелагічний отер-трал</text>
  <text x="150" y="48" font-size="11" fill="#2E86AB" font-style="italic">Midwater otter trawl</text>
  <text x="10" y="205" font-size="10" fill="#595959">Розпірні дошки (otter boards) розводять вхід сітки в боки</text>
</svg>
